<svg viewBox="0 0 113 113" fill="none" xmlns="http://www.w3.org/2000/svg">
<path d="M108.649 56.649C108.649 27.9302 85.3677 4.64905 56.6489 4.64905C27.9301 4.64905 4.64893 27.9302 4.64893 56.649C4.64893 85.3679 27.9301 108.649 56.6489 108.649C85.3677 108.649 108.649 85.3679 108.649 56.649Z" fill="#D9D9D9"/>
<path d="M108.649 56.649C108.649 27.9302 85.3677 4.64902 56.6489 4.64902C27.9301 4.64902 4.64893 27.9302 4.64893 56.649C49.4106 78.819 71.1204 78.4228 108.649 56.649Z" fill="#D9D9D9" stroke="#59AC39" stroke-width="8" stroke-linejoin="round"/>
<path d="M56.6489 108.649C85.3677 108.649 108.649 85.3679 108.649 56.649C68 80.1177 44.9369 76.8156 4.64893 56.649C4.64893 85.3679 27.9301 108.649 56.6489 108.649Z" fill="#73C653"/>
<path d="M56.6489 108.649C85.3677 108.649 108.649 85.3679 108.649 56.649C68 80.1177 44.9369 76.8156 4.64893 56.649C4.64893 85.3679 27.9301 108.649 56.6489 108.649Z" stroke="#59AC39" stroke-width="8" stroke-linejoin="round"/>
</svg>
