<svg width="527" height="1209" viewBox="0 0 527 1209" fill="none" xmlns="http://www.w3.org/2000/svg">
<g clip-path="url(#clip0_6190_41019)">
<mask id="mask0_6190_41019" style="mask-type:alpha" maskUnits="userSpaceOnUse" x="109" y="0" width="310" height="177">
<path d="M419 0H109V177H419V0Z" fill="#C4C4C4"/>
</mask>
<g mask="url(#mask0_6190_41019)">
<path d="M263 287C323.751 287 373 237.751 373 177C373 116.249 323.751 67 263 67C202.249 67 153 116.249 153 177C153 237.751 202.249 287 263 287Z" stroke="#AD8BD6" stroke-width="10"/>
<path d="M263 297C329.274 297 383 243.274 383 177C383 110.726 329.274 57 263 57C196.726 57 143 110.726 143 177C143 243.274 196.726 297 263 297Z" stroke="#86DBFE" stroke-width="10"/>
<path d="M263 307C334.797 307 393 248.797 393 177C393 105.203 334.797 47 263 47C191.203 47 133 105.203 133 177C133 248.797 191.203 307 263 307Z" stroke="#51F1D2" stroke-width="10"/>
<path d="M263 297C334.797 297 393 238.797 393 167C393 95.203 334.797 37 263 37C191.203 37 133 95.203 133 167C133 238.797 191.203 297 263 297Z" stroke="#FDFAD4" stroke-width="10"/>
<path d="M263 307C340.32 307 403 244.32 403 167C403 89.6801 340.32 27 263 27C185.68 27 123 89.6801 123 167C123 244.32 185.68 307 263 307Z" stroke="#FB91C9" stroke-width="10"/>
<path d="M263 317C345.843 317 413 249.843 413 167C413 84.1573 345.843 17 263 17C180.157 17 113 84.1573 113 167C113 249.843 180.157 317 263 317Z" stroke="#AD8BD6" stroke-width="10"/>
<path d="M365.791 35.115L366.795 21.1971C367.068 17.4219 362.841 15.0173 359.735 17.1804L348.284 25.1548L335.358 19.8986C331.852 18.4728 328.259 21.7493 329.356 25.3717L333.402 38.7265L324.408 49.3958C321.969 52.2899 323.975 56.7194 327.759 56.7952L341.71 57.0744L349.078 68.9247C351.077 72.139 355.909 71.6002 357.151 68.0245L361.728 54.8424L375.275 51.4969C378.949 50.5894 379.93 45.8269 376.913 43.5412L365.791 35.115Z" fill="#FEFACC" stroke="#AD8BD6" stroke-width="6"/>
<path d="M280 25C285.523 25 290 20.5228 290 15C290 9.47715 285.523 5 280 5C274.477 5 270 9.47715 270 15C270 20.5228 274.477 25 280 25Z" fill="white" stroke="#AD8BD6" stroke-width="6"/>
<path d="M216 87C220.971 87 225 82.9706 225 78C225 73.0294 220.971 69 216 69C211.029 69 207 73.0294 207 78C207 82.9706 211.029 87 216 87Z" fill="white" stroke="#AD8BD6" stroke-width="6"/>
</g>
<path fill-rule="evenodd" clip-rule="evenodd" d="M0 753C0 719.311 27.3106 692 61 692H259H463.88C498.74 692 527 720.26 527 755.12V1069.88C527 1104.74 498.74 1133 463.88 1133H259H61C27.3106 1133 0 1105.69 0 1072V753ZM470 952V915.5C470 859.443 424.557 814 368.5 814C312.443 814 267 859.443 267 915.5V952C267 966.912 279.088 979 294 979H443C457.912 979 470 966.912 470 952Z" fill="#FB91C9"/>
<mask id="mask1_6190_41019" style="mask-type:luminance" maskUnits="userSpaceOnUse" x="0" y="692" width="527" height="441">
<path fill-rule="evenodd" clip-rule="evenodd" d="M0 753C0 719.311 27.3106 692 61 692H259H463.88C498.74 692 527 720.26 527 755.12V1069.88C527 1104.74 498.74 1133 463.88 1133H259H61C27.3106 1133 0 1105.69 0 1072V753ZM470 952V915.5C470 859.443 424.557 814 368.5 814C312.443 814 267 859.443 267 915.5V952C267 966.912 279.088 979 294 979H443C457.912 979 470 966.912 470 952Z" fill="white"/>
</mask>
<g mask="url(#mask1_6190_41019)">
<path d="M61 680C20.6832 680 -12 712.683 -12 753H12C12 725.938 33.938 704 61 704V680ZM259 680H61V704H259V680ZM463.88 680H259V704H463.88V680ZM539 755.12C539 713.632 505.368 680 463.88 680V704C492.113 704 515 726.887 515 755.12H539ZM539 1069.88V755.12H515V1069.88H539ZM463.88 1145C505.368 1145 539 1111.37 539 1069.88H515C515 1098.11 492.113 1121 463.88 1121V1145ZM259 1145H463.88V1121H259V1145ZM61 1145H259V1121H61V1145ZM-12 1072C-12 1112.32 20.6832 1145 61 1145V1121C33.938 1121 12 1099.06 12 1072H-12ZM-12 753V1072H12V753H-12ZM458 915.5V952H482V915.5H458ZM368.5 826C417.929 826 458 866.071 458 915.5H482C482 852.816 431.184 802 368.5 802V826ZM279 915.5C279 866.071 319.071 826 368.5 826V802C305.816 802 255 852.816 255 915.5H279ZM279 952V915.5H255V952H279ZM294 967C285.716 967 279 960.284 279 952H255C255 973.539 272.461 991 294 991V967ZM443 967H294V991H443V967ZM458 952C458 960.284 451.284 967 443 967V991C464.539 991 482 973.539 482 952H458Z" fill="#AD8BD6"/>
</g>
<path fill-rule="evenodd" clip-rule="evenodd" d="M64.7726 1116C54.5184 1116 44.8853 1120.91 38.866 1129.22L32.1341 1138.5L24.2242 1150L12.8537 1166.5L6.9212 1176L1.97749 1185.5L0.494371 1189.5L0 1194V1199.5L0.988743 1205L3.4606 1209H192.805H194.782H523.539L526.011 1205L527 1199.5V1194L526.506 1189.5L525.023 1185.5L520.079 1176L514.146 1166.5L502.776 1150L494.866 1138.5L488.134 1129.22C482.115 1120.91 472.482 1116 462.227 1116H194.782H192.805H64.7726Z" fill="#3DF5DD"/>
<mask id="mask2_6190_41019" style="mask-type:luminance" maskUnits="userSpaceOnUse" x="0" y="1116" width="527" height="93">
<path fill-rule="evenodd" clip-rule="evenodd" d="M64.7726 1116C54.5184 1116 44.8853 1120.91 38.866 1129.22L32.1341 1138.5L24.2242 1150L12.8537 1166.5L6.9212 1176L1.97749 1185.5L0.494371 1189.5L0 1194V1199.5L0.988743 1205L3.4606 1209H192.805H194.782H523.539L526.011 1205L527 1199.5V1194L526.506 1189.5L525.023 1185.5L520.079 1176L514.146 1166.5L502.776 1150L494.866 1138.5L488.134 1129.22C482.115 1120.91 472.482 1116 462.227 1116H194.782H192.805H64.7726Z" fill="white"/>
</mask>
<g mask="url(#mask2_6190_41019)">
<path d="M32.1341 1138.5L22.4192 1131.46L22.3316 1131.58L22.2471 1131.7L32.1341 1138.5ZM24.2242 1150L34.1052 1156.81L34.1112 1156.8L24.2242 1150ZM12.8537 1166.5L2.97265 1159.69L2.81883 1159.91L2.67525 1160.14L12.8537 1166.5ZM6.9212 1176L-3.25721 1169.64L-3.50646 1170.04L-3.7237 1170.46L6.9212 1176ZM1.97749 1185.5L-8.66741 1179.96L-9.01342 1180.63L-9.274 1181.33L1.97749 1185.5ZM0.494371 1189.5L-10.7571 1185.33L-11.2721 1186.72L-11.4339 1188.19L0.494371 1189.5ZM0 1194L-11.9282 1192.69L-12 1193.34V1194H0ZM0 1199.5H-12V1200.57L-11.8107 1201.62L0 1199.5ZM0.988743 1205L-10.8219 1207.12L-10.4184 1209.37L-9.21938 1211.31L0.988743 1205ZM3.4606 1209L-6.74753 1215.31L-3.23023 1221H3.4606V1209ZM523.539 1209V1221H530.23L533.748 1215.31L523.539 1209ZM526.011 1205L536.219 1211.31L537.418 1209.37L537.822 1207.12L526.011 1205ZM527 1199.5L538.811 1201.62L539 1200.57V1199.5H527ZM527 1194H539V1193.34L538.928 1192.69L527 1194ZM526.506 1189.5L538.434 1188.19L538.272 1186.72L537.757 1185.33L526.506 1189.5ZM525.023 1185.5L536.274 1181.33L536.013 1180.63L535.667 1179.96L525.023 1185.5ZM520.079 1176L530.724 1170.46L530.506 1170.04L530.257 1169.64L520.079 1176ZM514.146 1166.5L524.325 1160.14L524.181 1159.91L524.027 1159.69L514.146 1166.5ZM502.776 1150L492.889 1156.8L492.895 1156.81L502.776 1150ZM494.866 1138.5L504.753 1131.7L504.668 1131.58L504.581 1131.46L494.866 1138.5ZM48.5809 1136.26C52.343 1131.07 58.3637 1128 64.7726 1128V1104C50.6731 1104 37.4276 1110.76 29.151 1122.17L48.5809 1136.26ZM41.8491 1145.54L48.5809 1136.26L29.151 1122.17L22.4192 1131.46L41.8491 1145.54ZM34.1112 1156.8L42.0212 1145.3L22.2471 1131.7L14.3372 1143.2L34.1112 1156.8ZM22.7347 1173.31L34.1052 1156.81L14.3432 1143.19L2.97265 1159.69L22.7347 1173.31ZM17.0996 1182.36L23.0321 1172.86L2.67525 1160.14L-3.25721 1169.64L17.0996 1182.36ZM12.6224 1191.04L17.5661 1181.54L-3.7237 1170.46L-8.66741 1179.96L12.6224 1191.04ZM11.7459 1193.67L13.229 1189.67L-9.274 1181.33L-10.7571 1185.33L11.7459 1193.67ZM11.9282 1195.31L12.4226 1190.81L-11.4339 1188.19L-11.9282 1192.69L11.9282 1195.31ZM12 1199.5V1194H-12V1199.5H12ZM12.7994 1202.88L11.8107 1197.38L-11.8107 1201.62L-10.8219 1207.12L12.7994 1202.88ZM13.6687 1202.69L11.1969 1198.69L-9.21938 1211.31L-6.74753 1215.31L13.6687 1202.69ZM192.805 1197H3.4606V1221H192.805V1197ZM192.805 1221H194.782V1197H192.805V1221ZM194.782 1221H523.539V1197H194.782V1221ZM533.748 1215.31L536.219 1211.31L515.803 1198.69L513.331 1202.69L533.748 1215.31ZM537.822 1207.12L538.811 1201.62L515.189 1197.38L514.201 1202.88L537.822 1207.12ZM539 1199.5V1194H515V1199.5H539ZM538.928 1192.69L538.434 1188.19L514.577 1190.81L515.072 1195.31L538.928 1192.69ZM537.757 1185.33L536.274 1181.33L513.771 1189.67L515.254 1193.67L537.757 1185.33ZM535.667 1179.96L530.724 1170.46L509.434 1181.54L514.378 1191.04L535.667 1179.96ZM530.257 1169.64L524.325 1160.14L503.968 1172.86L509.9 1182.36L530.257 1169.64ZM524.027 1159.69L512.657 1143.19L492.895 1156.81L504.265 1173.31L524.027 1159.69ZM512.663 1143.2L504.753 1131.7L484.979 1145.3L492.889 1156.8L512.663 1143.2ZM504.581 1131.46L497.849 1122.17L478.419 1136.26L485.151 1145.54L504.581 1131.46ZM497.849 1122.17C489.572 1110.76 476.327 1104 462.227 1104V1128C468.636 1128 474.657 1131.07 478.419 1136.26L497.849 1122.17ZM462.227 1104H194.782V1128H462.227V1104ZM194.782 1104H192.805V1128H194.782V1104ZM64.7726 1128H192.805V1104H64.7726V1128Z" fill="#AD8BD6"/>
</g>
<path d="M482 264H488V258V223C488 198.699 468.301 179 444 179H84C59.6995 179 40 198.699 40 223V258V264H46H482Z" fill="#FB91C9" stroke="#AD8BD6" stroke-width="12"/>
<path fill-rule="evenodd" clip-rule="evenodd" d="M61 258C27.3106 258 0 285.311 0 319V638C0 671.689 27.3106 699 61 699H259H463.88C498.74 699 527 670.74 527 635.88V321.12C527 286.26 498.74 258 463.88 258H259H61Z" fill="#34ACD9" fill-opacity="0.19"/>
<mask id="mask3_6190_41019" style="mask-type:luminance" maskUnits="userSpaceOnUse" x="0" y="258" width="527" height="441">
<path fill-rule="evenodd" clip-rule="evenodd" d="M61 258C27.3106 258 0 285.311 0 319V638C0 671.689 27.3106 699 61 699H259H463.88C498.74 699 527 670.74 527 635.88V321.12C527 286.26 498.74 258 463.88 258H259H61Z" fill="white"/>
</mask>
<g mask="url(#mask3_6190_41019)">
<path d="M12 319C12 291.938 33.938 270 61 270V246C20.6832 246 -12 278.683 -12 319H12ZM12 638V319H-12V638H12ZM61 687C33.938 687 12 665.062 12 638H-12C-12 678.317 20.6832 711 61 711V687ZM259 687H61V711H259V687ZM259 711H463.88V687H259V711ZM463.88 711C505.368 711 539 677.368 539 635.88H515C515 664.113 492.113 687 463.88 687V711ZM539 635.88V321.12H515V635.88H539ZM539 321.12C539 279.632 505.368 246 463.88 246V270C492.113 270 515 292.887 515 321.12H539ZM463.88 246H259V270H463.88V246ZM61 270H259V246H61V270Z" fill="#AD8BD6"/>
</g>
<path d="M379.071 746.138L373.061 733.544C371.431 730.128 366.569 730.128 364.939 733.544L358.929 746.138L345.095 747.961C341.342 748.456 339.84 753.081 342.585 755.687L352.705 765.294L350.165 779.014C349.475 782.736 353.409 785.594 356.736 783.789L369 777.132L381.264 783.789C384.591 785.594 388.525 782.736 387.835 779.014L385.295 765.294L395.415 755.687C398.16 753.081 396.658 748.456 392.905 747.961L379.071 746.138Z" fill="#FEFACC" stroke="#AD8BD6" stroke-width="6"/>
<path d="M418 781C423.523 781 428 776.523 428 771C428 765.477 423.523 761 418 761C412.477 761 408 765.477 408 771C408 776.523 412.477 781 418 781Z" fill="#FEFACC" stroke="#AD8BD6" stroke-width="6"/>
<path d="M319 781C324.523 781 329 776.523 329 771C329 765.477 324.523 761 319 761C313.477 761 309 765.477 309 771C309 776.523 313.477 781 319 781Z" fill="#FEFACC" stroke="#AD8BD6" stroke-width="6"/>
<path d="M290.5 796C294.09 796 297 793.09 297 789.5C297 785.91 294.09 783 290.5 783C286.91 783 284 785.91 284 789.5C284 793.09 286.91 796 290.5 796Z" fill="#FEFACC" stroke="#AD8BD6" stroke-width="6"/>
<path d="M447.5 796C451.09 796 454 793.09 454 789.5C454 785.91 451.09 783 447.5 783C443.91 783 441 785.91 441 789.5C441 793.09 443.91 796 447.5 796Z" fill="#FEFACC" stroke="#AD8BD6" stroke-width="6"/>
<path d="M494.5 1033H242.5C240.015 1033 238 1035.01 238 1037.5C238 1039.99 240.015 1042 242.5 1042H494.5C496.985 1042 499 1039.99 499 1037.5C499 1035.01 496.985 1033 494.5 1033Z" fill="#FEFACC"/>
<path d="M492.5 1050H244.5C240.91 1050 238 1052.91 238 1056.5C238 1060.09 240.91 1063 244.5 1063H492.5C496.09 1063 499 1060.09 499 1056.5C499 1052.91 496.09 1050 492.5 1050Z" fill="#3DF5DD"/>
<path d="M391.5 283H57.5C53.3579 283 50 286.358 50 290.5C50 294.642 53.3579 298 57.5 298H391.5C395.642 298 399 294.642 399 290.5C399 286.358 395.642 283 391.5 283Z" fill="white"/>
<path d="M437.5 289.999C457 288.666 496 292.499 496 318.499" stroke="white" stroke-width="12" stroke-linecap="round"/>
<path d="M184 972H83C73.0589 972 65 980.059 65 990V1021C65 1030.94 73.0589 1039 83 1039H184C193.941 1039 202 1030.94 202 1021V990C202 980.059 193.941 972 184 972Z" fill="white" stroke="#B687D4" stroke-width="12"/>
<path d="M134.5 943C169.018 943 197 915.018 197 880.5C197 845.982 169.018 818 134.5 818C99.9822 818 72 845.982 72 880.5C72 915.018 99.9822 943 134.5 943Z" fill="#C4C4C4" stroke="#B687D4" stroke-width="12"/>
<path d="M132.5 934C167.018 934 195 906.018 195 871.5C195 836.982 167.018 809 132.5 809C97.9822 809 70 836.982 70 871.5C70 906.018 97.9822 934 132.5 934Z" fill="#FB91C9" stroke="#B687D4" stroke-width="12"/>
<path d="M35.5 562V608.5C36.6667 627.167 46.1 664.5 74.5 664.5C102.9 664.5 125.667 664.5 133.5 664.5" stroke="white" stroke-width="12" stroke-linecap="round"/>
<path fill-rule="evenodd" clip-rule="evenodd" d="M470 947.001V910.501C470 905.885 469.692 901.34 469.095 896.887C477.338 912.615 482 930.513 482 949.501V986.001C482 1007.54 464.539 1025 443 1025H294C272.461 1025 255 1007.54 255 986.001V949.501C255 930.513 259.662 912.615 267.905 896.887C267.308 901.34 267 905.885 267 910.501V947.001C267 961.912 279.088 974.001 294 974.001H443C457.912 974.001 470 961.912 470 947.001Z" fill="#FF9FD0"/>
<mask id="mask4_6190_41019" style="mask-type:luminance" maskUnits="userSpaceOnUse" x="255" y="896" width="227" height="129">
<path fill-rule="evenodd" clip-rule="evenodd" d="M470 947.001V910.501C470 905.885 469.692 901.34 469.095 896.887C477.338 912.615 482 930.513 482 949.501V986.001C482 1007.54 464.539 1025 443 1025H294C272.461 1025 255 1007.54 255 986.001V949.501C255 930.513 259.662 912.615 267.905 896.887C267.308 901.34 267 905.885 267 910.501V947.001C267 961.912 279.088 974.001 294 974.001H443C457.912 974.001 470 961.912 470 947.001Z" fill="white"/>
</mask>
<g mask="url(#mask4_6190_41019)">
<path d="M469.095 896.886L479.724 891.316L457.201 898.481L469.095 896.886ZM267.905 896.886L279.799 898.481L257.276 891.316L267.905 896.886ZM458 910.5V947H482V910.5H458ZM457.201 898.481C457.728 902.407 458 906.418 458 910.5H482C482 905.349 481.656 900.272 480.989 895.292L457.201 898.481ZM458.466 902.457C465.83 916.507 470 932.499 470 949.5H494C494 928.526 488.845 908.721 479.724 891.316L458.466 902.457ZM470 949.5V986H494V949.5H470ZM470 986C470 1000.91 457.912 1013 443 1013V1037C471.167 1037 494 1014.17 494 986H470ZM443 1013H294V1037H443V1013ZM294 1013C279.088 1013 267 1000.91 267 986H243C243 1014.17 265.833 1037 294 1037V1013ZM267 986V949.5H243V986H267ZM267 949.5C267 932.499 271.17 916.507 278.534 902.457L257.276 891.316C248.155 908.721 243 928.526 243 949.5H267ZM279 910.5C279 906.418 279.272 902.407 279.799 898.481L256.011 895.292C255.344 900.272 255 905.349 255 910.5H279ZM279 947V910.5H255V947H279ZM294 962C285.716 962 279 955.284 279 947H255C255 968.539 272.461 986 294 986V962ZM443 962H294V986H443V962ZM458 947C458 955.284 451.284 962 443 962V986C464.539 986 482 968.539 482 947H458Z" fill="#B687D4"/>
</g>
</g>
<defs>
<clipPath id="clip0_6190_41019">
<rect width="527" height="1209" fill="white"/>
</clipPath>
</defs>
</svg>
